<svg width="18" height="12" viewBox="0 0 18 12" fill="none" xmlns="http://www.w3.org/2000/svg">
<path fill-rule="evenodd" clip-rule="evenodd" d="M16.668 0.666992H15.668C15.1157 0.666992 14.668 1.11471 14.668 1.66699V10.3337C14.668 10.8859 15.1157 11.3337 15.668 11.3337H16.668C17.2203 11.3337 17.668 10.8859 17.668 10.3337V1.66699C17.668 1.11471 17.2203 0.666992 16.668 0.666992ZM11.0013 3.00031H12.0013C12.5536 3.00031 13.0013 3.44802 13.0013 4.00031V10.3336C13.0013 10.8859 12.5536 11.3336 12.0013 11.3336H11.0013C10.449 11.3336 10.0013 10.8859 10.0013 10.3336V4.00031C10.0013 3.44802 10.449 3.00031 11.0013 3.00031ZM7.33463 5.33368H6.33463C5.78234 5.33368 5.33463 5.78139 5.33463 6.33368V10.3337C5.33463 10.886 5.78234 11.3337 6.33463 11.3337H7.33463C7.88691 11.3337 8.33463 10.886 8.33463 10.3337V6.33368C8.33463 5.78139 7.88691 5.33368 7.33463 5.33368ZM2.66797 7.33368H1.66797C1.11568 7.33368 0.667969 7.78139 0.667969 8.33368V10.3337C0.667969 10.886 1.11568 11.3337 1.66797 11.3337H2.66797C3.22025 11.3337 3.66797 10.886 3.66797 10.3337V8.33368C3.66797 7.78139 3.22025 7.33368 2.66797 7.33368Z" fill="#161823"/>
</svg>
