<svg width="16" height="12" viewBox="0 0 16 12" fill="none" xmlns="http://www.w3.org/2000/svg">
<path fill-rule="evenodd" clip-rule="evenodd" d="M8.33192 2.60838C10.5478 2.60848 12.679 3.45992 14.2849 4.98672C14.4059 5.10459 14.5991 5.1031 14.7183 4.98338L15.8743 3.81672C15.9346 3.75599 15.9682 3.67374 15.9677 3.58816C15.9672 3.50258 15.9326 3.42073 15.8716 3.36072C11.6565 -0.678832 5.00668 -0.678832 0.791585 3.36072C0.730526 3.42068 0.695883 3.50251 0.695319 3.58809C0.694756 3.67367 0.728321 3.75595 0.788585 3.81672L1.94492 4.98338C2.06395 5.10328 2.25739 5.10477 2.37825 4.98672C3.9844 3.45982 6.11581 2.60838 8.33192 2.60838ZM8.33191 6.40408C9.5494 6.404 10.7234 6.85653 11.6259 7.67374C11.748 7.78972 11.9403 7.78721 12.0592 7.66808L13.2139 6.50141C13.2747 6.44021 13.3085 6.3572 13.3076 6.27093C13.3067 6.18467 13.2713 6.10236 13.2092 6.04241C10.461 3.48603 6.20511 3.48603 3.45691 6.04241C3.39483 6.10235 3.35941 6.18471 3.3586 6.271C3.35778 6.35729 3.39164 6.4403 3.45257 6.50141L4.60691 7.66808C4.72589 7.78721 4.91818 7.78972 5.04024 7.67374C5.94211 6.85707 7.11522 6.40458 8.33191 6.40408ZM10.6449 8.95789C10.6467 9.0444 10.6127 9.1278 10.5509 9.1884L8.55358 11.2041C8.49503 11.2633 8.4152 11.2966 8.33191 11.2966C8.24862 11.2966 8.16879 11.2633 8.11024 11.2041L6.11258 9.1884C6.05087 9.12775 6.01692 9.04432 6.01875 8.95782C6.02058 8.87131 6.05802 8.78939 6.12224 8.7314C7.39782 7.65252 9.26601 7.65252 10.5416 8.7314C10.6058 8.78944 10.6431 8.87138 10.6449 8.95789Z" fill="#161823"/>
</svg>
